HIERARCHY
ROOT Hips
{
	OFFSET 0.000000 0.000000 0.000000
	CHANNELS 6 Xposition Yposition Zposition Zrotation Yrotation Xrotation 
	JOINT LHipJoint
	{
		OFFSET 0.000000 0.000000 0.000000
		CHANNELS 3 Zrotation Yrotation Xrotation
		JOINT LeftUpLeg
		{
			OFFSET 1.363060 -1.794630 0.839290
			CHANNELS 3 Zrotation Yrotation Xrotation
			JOINT LeftLeg
			{
				OFFSET 2.448110 -6.726130 0.000000
				CHANNELS 3 Zrotation Yrotation Xrotation
				JOINT LeftFoot
				{
					OFFSET 2.562200 -7.039590 0.000000
					CHANNELS 3 Zrotation Yrotation Xrotation
					JOINT LeftToeBase
					{
						OFFSET 0.157640 -0.433110 2.322550
						CHANNELS 3 Zrotation Yrotation Xrotation
						End Site
						{
							OFFSET 0.000000 0.000000 0.000000
						}
					}
				}
			}
		}
	}
	JOINT RHipJoint
	{
		OFFSET 0.000000 0.000000 0.000000
		CHANNELS 3 Zrotation Yrotation Xrotation
		JOINT RightUpLeg
		{
			OFFSET -1.305520 -1.794630 0.839290
			CHANNELS 3 Zrotation Yrotation Xrotation
			JOINT RightLeg
			{
				OFFSET -2.542530 -6.985550 0.000000
				CHANNELS 3 Zrotation Yrotation Xrotation
				JOINT RightFoot
				{
					OFFSET -2.568260 -7.056230 0.000000
					CHANNELS 3 Zrotation Yrotation Xrotation
					JOINT RightToeBase
					{
						OFFSET -0.164730 -0.452590 2.363150
						CHANNELS 3 Zrotation Yrotation Xrotation
						End Site
						{
							OFFSET 0.000000 0.000000 0.000000
						}
					}
				}
			}
		}
	}
	JOINT LowerBack
	{
		OFFSET 0.000000 0.000000 0.000000
		CHANNELS 3 Zrotation Yrotation Xrotation
		JOINT Spine
		{
			OFFSET 0.028270 2.035590 -0.193380
			CHANNELS 3 Zrotation Yrotation Xrotation
			JOINT Spine1
			{
				OFFSET 0.056720 2.048850 -0.042750
				CHANNELS 3 Zrotation Yrotation Xrotation
				JOINT Neck
				{
					OFFSET 0.000000 0.000000 0.000000
					CHANNELS 3 Zrotation Yrotation Xrotation
					JOINT Neck1
					{
						OFFSET -0.054170 1.746240 0.172020
						CHANNELS 3 Zrotation Yrotation Xrotation
						JOINT Head
						{
							OFFSET 0.104070 1.761360 -0.123970
							CHANNELS 3 Zrotation Yrotation Xrotation
							End Site
							{
								OFFSET 0.000000 0.000000 0.000000
							}
						}
					}
				}
				JOINT LeftShoulder
				{
					OFFSET 0.000000 0.000000 0.000000
					CHANNELS 3 Zrotation Yrotation Xrotation
					JOINT LeftArm
					{
						OFFSET 3.362410 1.200890 -0.311210
						CHANNELS 3 Zrotation Yrotation Xrotation
						JOINT LeftForeArm
						{
							OFFSET 4.983000 -0.000000 -0.000000
							CHANNELS 3 Zrotation Yrotation Xrotation
							JOINT LeftHand
							{
								OFFSET 3.483560 -0.000000 -0.000000
								CHANNELS 3 Zrotation Yrotation Xrotation
								JOINT LeftFingerBase
								{
									OFFSET 0.000000 0.000000 0.000000
									CHANNELS 3 Zrotation Yrotation Xrotation
									JOINT LeftHandIndex1
									{
										OFFSET 0.715260 -0.000000 -0.000000
										CHANNELS 3 Zrotation Yrotation Xrotation
										End Site
										{
											OFFSET 0.000000 0.000000 0.000000
										}
									}
								}
								JOINT LThumb
								{
									OFFSET 0.000000 0.000000 0.000000
									CHANNELS 3 Zrotation Yrotation Xrotation
									End Site
									{
										OFFSET 0.000000 0.000000 0.000000
									}
								}
							}
						}
					}
				}
				JOINT RightShoulder
				{
					OFFSET 0.000000 0.000000 0.000000
					CHANNELS 3 Zrotation Yrotation Xrotation
					JOINT RightArm
					{
						OFFSET -3.136600 1.374050 -0.404650
						CHANNELS 3 Zrotation Yrotation Xrotation
						JOINT RightForeArm
						{
							OFFSET -5.241900 -0.000000 -0.000000
							CHANNELS 3 Zrotation Yrotation Xrotation
							JOINT RightHand
							{
								OFFSET -3.444170 -0.000000 -0.000000
								CHANNELS 3 Zrotation Yrotation Xrotation
								JOINT RightFingerBase
								{
									OFFSET 0.000000 0.000000 0.000000
									CHANNELS 3 Zrotation Yrotation Xrotation
									JOINT RightHandIndex1
									{
										OFFSET -0.622530 -0.000000 -0.000000
										CHANNELS 3 Zrotation Yrotation Xrotation
										End Site
										{
											OFFSET 0.000000 0.000000 0.000000
										}
									}
								}
								JOINT RThumb
								{
									OFFSET 0.000000 0.000000 0.000000
									CHANNELS 3 Zrotation Yrotation Xrotation
									End Site
									{
										OFFSET 0.000000 0.000000 0.000000
									}
								}
							}
						}
					}
				}
			}
		}
	}
}
MOTION
Frames: 5
Frame Time: 0.008333
0.054667 18.001149 -11.175590 -4.389841 -2.120332 0.495065 1.070357 1.156913 0.520479 -12.699096 -5.555834 -28.169113 2.578727 11.717451 33.884703 -0.972405 6.368504 6.292203 0.382400 -3.971100 -10.995300 -2.695186 -2.490249 0.998399 33.553984 8.625763 -1.386212 -2.421755 -9.024868 29.356975 1.680451 -10.051092 -12.125006 -0.145400 2.457500 -6.771700 5.444746 1.333815 6.699638 1.379138 1.834368 -1.046649 1.037457 1.378866 -2.087596 -7.249680 -1.736590 -10.805280 2.742657 -1.363784 14.077845 2.609100 -1.214100 9.163400 -7.450984 2.924083 -2.298713 -82.758259 4.433612 21.795121 11.081368 -21.023931 -2.548265 -1.324535 -3.226364 12.426726 15.773241 22.569770 7.374100 -7.125000 0.000000 0.000000 -14.681500 56.381200 -4.160000 5.879066 -1.977044 -1.949016 77.668259 5.850221 17.679199 -15.012204 22.695947 -4.090478 0.953653 -0.836748 3.361850 -13.323200 14.984338 -3.957300 7.125000 0.000000 0.000000 8.960600 -13.921200 6.624700
0.054103 17.991104 -11.078014 -4.479519 -2.097942 0.618896 1.003790 1.134111 0.499537 -12.491792 -5.744779 -28.124129 2.242585 11.265697 32.337316 -1.114781 6.968204 6.476597 0.399577 -4.057535 -11.238589 -2.671720 -2.488985 1.005876 33.641048 8.503796 -1.108866 -2.397122 -8.973614 29.221936 1.667999 -10.046922 -12.306884 -0.147664 2.476278 -6.823837 5.540772 1.378847 6.658870 1.378506 1.892537 -1.048712 0.977470 1.413371 -2.057036 -7.242939 -1.776370 -10.878944 2.741195 -1.414332 14.031102 2.601478 -1.234811 9.163013 -7.460357 2.922630 -2.293093 -82.850304 4.535096 21.504638 10.956001 -20.822822 -2.501897 -1.445214 -3.066926 12.463118 16.700859 20.985281 7.373272 -7.125000 0.000000 0.000000 -12.758718 54.883359 -3.193970 5.875242 -1.963717 -1.942469 77.563660 6.237225 17.679370 -15.056114 22.747512 -4.110681 0.954184 -0.874509 3.238602 -13.342431 15.390476 -4.071958 7.125000 0.000000 0.000000 8.951984 -13.468589 6.704563
0.053763 17.981400 -10.979776 -4.556336 -2.087222 0.751265 0.937154 1.110860 0.477163 -12.293754 -5.933590 -28.083656 1.909048 10.808016 30.780058 -1.258873 7.578729 6.694879 0.417454 -4.146669 -11.489597 -2.646665 -2.487660 1.013388 33.709497 8.384974 -0.841456 -2.371998 -8.922023 29.084039 1.658753 -10.052127 -12.477162 -0.152617 2.516165 -6.934531 5.627594 1.430028 6.594387 1.371780 1.955584 -1.047453 0.904947 1.450454 -2.003104 -7.226939 -1.814721 -10.975218 2.744228 -1.464802 14.001799 2.594233 -1.254686 9.174395 -7.470397 2.921374 -2.286948 -82.927928 4.613943 21.217292 10.824164 -20.610347 -2.450782 -1.606872 -2.855876 12.516410 17.955583 18.949925 7.292140 -7.125000 0.000000 0.000000 -10.394305 52.911972 -2.171643 5.870267 -1.951998 -1.936461 77.481293 6.619660 17.663328 -15.108993 22.811680 -4.135754 0.954450 -0.908747 3.135269 -13.364433 15.763332 -4.178383 7.125000 0.000000 0.000000 8.941454 -13.053300 6.775691
0.054383 17.973161 -10.878702 -4.578109 -2.126451 0.920179 0.870218 1.085690 0.448659 -12.135373 -6.121826 -28.062493 1.586656 10.324965 29.180552 -1.410312 8.235589 7.058203 0.438331 -4.247354 -11.773646 -2.614814 -2.486072 1.021053 33.698269 8.279614 -0.616568 -2.344777 -8.868985 28.933908 1.663226 -10.097459 -12.597793 -0.169076 2.646398 -7.295846 5.675024 1.507524 6.428408 1.338976 2.039510 -1.031973 0.778768 1.498572 -1.849137 -7.171315 -1.846956 -11.168263 2.766497 -1.514943 14.047143 2.588600 -1.270979 9.236142 -7.483297 2.920956 -2.278556 -82.943830 4.595905 20.943375 10.664636 -20.349233 -2.379353 -1.943913 -2.423923 12.642038 20.610322 14.984858 6.867310 -7.125000 0.000000 0.000000 -6.139708 48.913808 -0.908364 5.860365 -1.947163 -1.932761 77.494077 6.982547 17.577895 -15.200257 22.929794 -4.181675 0.953582 -0.927911 3.117166 -13.398300 15.993742 -4.249575 7.125000 0.000000 0.000000 8.922731 -12.797751 6.809437
0.055047 17.964301 -10.776218 -4.632105 -2.203792 1.064680 0.799030 1.065491 0.423676 -11.920802 -6.300085 -27.988180 1.270468 9.825107 27.550838 -1.566630 8.917791 7.470038 0.448831 -4.298226 -11.917150 -2.585150 -2.485526 1.029804 33.730923 8.205127 -0.335360 -2.314655 -8.809459 28.766722 1.668380 -10.145019 -12.717675 -0.185576 2.772928 -7.647162 5.742591 1.576671 6.287184 1.318391 2.117272 -1.026051 0.680167 1.542817 -1.743446 -7.162617 -1.865821 -11.278681 2.803507 -1.540605 14.085996 2.602150 -1.279196 9.276885 -7.496304 2.926571 -2.271408 -82.993987 4.644862 20.631886 10.524391 -20.111357 -2.306052 -2.048063 -2.319631 12.722783 21.390293 14.034284 6.835827 -7.125000 0.000000 0.000000 -4.957830 47.990037 -0.580859 5.847924 -1.943777 -1.931874 77.492896 7.269703 17.572268 -15.307693 23.071024 -4.236365 0.957039 -0.935521 3.090432 -13.471333 16.122060 -4.306164 7.125000 0.000000 0.000000 8.873987 -12.653351 6.798622
